HIERARCHY
ROOT hip
{
  OFFSET 0 0 0
  CHANNELS 6 Xposition Yposition Zposition Zrotation Yrotation Xrotation
  JOINT abdomen
  {
    OFFSET 0 20.6881 -0.73152
    CHANNELS 3 Zrotation Xrotation Yrotation
    JOINT chest
    {
      OFFSET 0 11.7043 -0.48768
      CHANNELS 3 Zrotation Xrotation Yrotation
      JOINT neck
      {
        OFFSET 0 22.1894 -2.19456
        CHANNELS 3 Zrotation Xrotation Yrotation
        JOINT head
        {
          OFFSET -0.24384 7.07133 1.2192
          CHANNELS 3 Zrotation Xrotation Yrotation
          JOINT leftEye
          {
            OFFSET 4.14528 8.04674 8.04672
            CHANNELS 3 Zrotation Xrotation Yrotation
            End Site
            {
              OFFSET 1 0 0
            }
          }
          JOINT rightEye
          {
            OFFSET -3.6576 8.04674 8.04672
            CHANNELS 3 Zrotation Xrotation Yrotation
            End Site
            {
              OFFSET 1 0 0
            }
          }
        }
      }
      JOINT rCollar
      {
        OFFSET -2.68224 19.2634 -4.8768
        CHANNELS 3 Zrotation Xrotation Yrotation
        JOINT rShldr
        {
          OFFSET -8.77824 -1.95073 1.46304
          CHANNELS 3 Zrotation Xrotation Yrotation
          JOINT rForeArm
          {
            OFFSET -28.1742 -1.7115 0.48768
            CHANNELS 3 Zrotation Xrotation Yrotation
            JOINT rHand
            {
              OFFSET -22.5879 0.773209 7.07136
              CHANNELS 3 Zrotation Xrotation Yrotation
              JOINT rThumb1
              {
                OFFSET -1.2192 -0.487915 3.41376
                CHANNELS 3 Zrotation Xrotation Yrotation
                JOINT rThumb2
                {
                  OFFSET -3.37035 -0.52449 3.41376
                  CHANNELS 3 Zrotation Xrotation Yrotation
                  End Site
                  {
                    OFFSET -1.78271 -1.18214 1.43049
                  }
                }
              }
              JOINT rIndex1
              {
                OFFSET -7.75947 0.938293 5.60832
                CHANNELS 3 Zrotation Xrotation Yrotation
                JOINT rIndex2
                {
                  OFFSET -2.54057 -0.884171 1.56538
                  CHANNELS 3 Zrotation Xrotation Yrotation
                  End Site
                  {
                    OFFSET -1.62519 -0.234802 1.16502
                  }
                }
              }
              JOINT rMid1
              {
                OFFSET -8.24714 1.18213 3.41376
                CHANNELS 3 Zrotation Xrotation Yrotation
                JOINT rMid2
                {
                  OFFSET -3.10165 -0.590103 1.0647
                  CHANNELS 3 Zrotation Xrotation Yrotation
                  End Site
                  {
                    OFFSET -2.48547 -0.328903 0.83742
                  }
                }
              }
              JOINT rRing1
              {
                OFFSET -8.82822 0.546677 1.51678
                CHANNELS 3 Zrotation Xrotation Yrotation
                JOINT rRing2
                {
                  OFFSET -2.60934 -0.819778 -0.0198488
                  CHANNELS 3 Zrotation Xrotation Yrotation
                  End Site
                  {
                    OFFSET -2.33842 -0.294052 0.168128
                  }
                }
              }
              JOINT rPinky1
              {
                OFFSET -8.27202 -0.0477905 -0.4584
                CHANNELS 3 Zrotation Xrotation Yrotation
                JOINT rPinky2
                {
                  OFFSET -1.82734 -0.647385 -0.700984
                  CHANNELS 3 Zrotation Xrotation Yrotation
                  End Site
                  {
                    OFFSET -1.69225 -0.51767 -0.607171
                  }
                }
              }
            }
          }
        }
      }
      JOINT lCollar
      {
        OFFSET 2.68224 19.2634 -4.8768
        CHANNELS 3 Zrotation Xrotation Yrotation
        JOINT lShldr
        {
          OFFSET 8.77824 -1.95073 1.46304
          CHANNELS 3 Zrotation Xrotation Yrotation
          JOINT lForeArm
          {
            OFFSET 28.1742 -1.7115 0.48768
            CHANNELS 3 Zrotation Xrotation Yrotation
            JOINT lHand
            {
              OFFSET 22.5879 0.773209 7.07136
              CHANNELS 3 Zrotation Xrotation Yrotation
              JOINT lThumb1
              {
                OFFSET 1.2192 -0.487915 3.41376
                CHANNELS 3 Zrotation Xrotation Yrotation
                JOINT lThumb2
                {
                  OFFSET 3.37035 -0.52449 3.41376
                  CHANNELS 3 Zrotation Xrotation Yrotation
                  End Site
                  {
                    OFFSET 1.78271 -1.18214 1.43049
                  }
                }
              }
              JOINT lIndex1
              {
                OFFSET 7.75947 0.938293 5.60832
                CHANNELS 3 Zrotation Xrotation Yrotation
                JOINT lIndex2
                {
                  OFFSET 2.54057 -0.884171 1.56538
                  CHANNELS 3 Zrotation Xrotation Yrotation
                  End Site
                  {
                    OFFSET 1.62519 -0.234802 1.16502
                  }
                }
              }
              JOINT lMid1
              {
                OFFSET 8.24714 1.18213 3.41376
                CHANNELS 3 Zrotation Xrotation Yrotation
                JOINT lMid2
                {
                  OFFSET 3.10165 -0.590103 1.0647
                  CHANNELS 3 Zrotation Xrotation Yrotation
                  End Site
                  {
                    OFFSET 2.48547 -0.328903 0.83742
                  }
                }
              }
              JOINT lRing1
              {
                OFFSET 8.82822 0.546677 1.51678
                CHANNELS 3 Zrotation Xrotation Yrotation
                JOINT lRing2
                {
                  OFFSET 2.60934 -0.819778 -0.0198488
                  CHANNELS 3 Zrotation Xrotation Yrotation
                  End Site
                  {
                    OFFSET 2.33842 -0.294052 0.168128
                  }
                }
              }
              JOINT lPinky1
              {
                OFFSET 8.27202 -0.0477905 -0.4584
                CHANNELS 3 Zrotation Xrotation Yrotation
                JOINT lPinky2
                {
                  OFFSET 1.82734 -0.647385 -0.700984
                  CHANNELS 3 Zrotation Xrotation Yrotation
                  End Site
                  {
                    OFFSET 1.69225 -0.51767 -0.607171
                  }
                }
              }
            }
          }
        }
      }
    }
  }
  JOINT rButtock
  {
    OFFSET -8.77824 4.35084 1.2192
    CHANNELS 3 Zrotation Xrotation Yrotation
    JOINT rThigh
    {
      OFFSET 0 -1.70687 -2.19456
      CHANNELS 3 Zrotation Xrotation Yrotation
      JOINT rShin
      {
        OFFSET 0 -36.8199 0.73152
        CHANNELS 3 Zrotation Xrotation Yrotation
        JOINT rFoot
        {
          OFFSET 0.73152 -45.1104 -5.12064
          CHANNELS 3 Zrotation Xrotation Yrotation
          End Site
          {
            OFFSET -1.1221 -3.69964 12.103
          }
        }
      }
    }
  }
  JOINT lButtock
  {
    OFFSET 8.77824 4.35084 1.2192
    CHANNELS 3 Zrotation Xrotation Yrotation
    JOINT lThigh
    {
      OFFSET 0 -1.70687 -2.19456
      CHANNELS 3 Zrotation Xrotation Yrotation
      JOINT lShin
      {
        OFFSET 0 -36.8199 0.73152
        CHANNELS 3 Zrotation Xrotation Yrotation
        JOINT lFoot
        {
          OFFSET -0.73152 -45.1104 -5.12064
          CHANNELS 3 Zrotation Xrotation Yrotation
          End Site
          {
            OFFSET 1.1221 -3.69964 12.103
          }
        }
      }
    }
  }
}
MOTION
Frames:	4
Frame Time:	0.00833333
0.0 0.0 0.0 0.0 0.0 0.0 0.0 0.0 0.0 0.0 0.0 0.0 0.0 0.0 0.0 0.0 0.0 0.0 0.0 0.0 0.0 0.0 0.0 0.0 0.0 0.0 0.0 0.0 0.0 0.0 0.0 0.0 0.0 0.0 0.0 0.0 0.0 0.0 0.0 0.0 0.0 0.0 0.0 0.0 0.0 0.0 0.0 0.0 0.0 0.0 0.0 0.0 0.0 0.0 0.0 0.0 0.0 0.0 0.0 0.0 0.0 0.0 0.0 0.0 0.0 0.0 0.0 0.0 0.0 0.0 0.0 0.0 0.0 0.0 0.0 0.0 0.0 0.0 0.0 0.0 0.0 0.0 0.0 0.0 0.0 0.0 0.0 0.0 0.0 0.0 0.0 0.0 0.0 0.0 0.0 0.0 0.0 0.0 0.0 0.0 0.0 0.0 0.0 0.0 0.0 0.0 0.0 0.0 0.0 0.0 0.0 0.0 0.0 0.0 0.0 0.0 0.0 0.0 0.0 0.0 0.0 0.0 0.0 0.0 0.0 0.0 0.0 0.0 0.0 0.0 0.0 0.0
46.5029 47.9577 10.2154 0.0 0.0 0.0 -0.0 -4.771896 -180.0 0.0 -4.771896 -180.0 10.034043 15.923643 138.388627 -2.970543 18.523473 -139.311015 -0.0 0.0 -0.0 -0.0 0.0 -0.0 -142.973735 39.431617 147.390037 0.390751 62.824933 24.488577 -168.937961 1.653014 175.862636 4.718011 -14.507825 1.101683 -19.688051 17.543742 5.975988 54.912505 -57.147851 -1.877141 -138.493513 4.896353 114.8648 10.407662 17.721987 -10.916358 -167.375306 -28.008469 145.269175 -2.594169 21.001564 5.96758 0.000171 0.022601 0.007101 -165.740179 -1.028987 171.908227 8.143703 25.599709 7.179334 -11.700129 -23.145535 -11.137568 159.220516 -48.028485 -170.415257 82.89785 64.955938 -94.644688 5.953866 49.380806 -6.102793 -2.066486 -6.526197 -0.341681 121.36458 30.329582 -71.957921 29.999578 -15.849674 -29.586152 108.427673 34.160977 -91.742903 159.072984 -9.575505 -125.341513 -6.908911 -21.623998 2.809719 8.286141 20.606608 -5.572875 -0.004672 0.917785 -0.288305 166.664493 -45.858585 -177.641554 152.200278 37.330087 147.582714 154.517489 36.912215 144.808377 -0.0 0.0 -0.0 -0.0 0.0 -0.0 -2.721753 1.041334 -25.607042 76.415663 6.9405 -6.063852 -0.0 0.0 -0.0 -0.0 0.0 -0.0 -6.40264 2.864577 -64.432653 150.389369 -7.194413 -78.663164
46.511 47.9532 10.2105 0.0 -0.0 0.0 -0.0 -4.771896 -180.0 -0.0 -4.771896 180.0 8.327782 17.614048 152.283128 -0.670744 19.415777 -153.460855 -0.0 0.0 -0.0 -0.0 0.0 -0.0 -80.1661 68.371792 83.260848 16.89865 15.899113 -0.048397 0.302531 47.912314 -31.288976 166.950444 -26.235321 142.180076 -169.319662 -7.000857 89.921973 2.924683 -54.443272 10.793662 -151.679432 -17.764752 121.237135 -144.841606 -2.964215 120.111621 -36.036059 51.723116 29.832321 2.119974 -0.703382 -2.702138 0.004875 1.770451 0.556181 -165.861686 -0.843264 172.216658 -163.643109 74.574101 -150.515831 63.423953 81.017014 -26.318455 155.417258 -2.951435 -161.718542 -12.81679 17.313084 -18.111071 156.993498 -42.557081 -179.185142 -28.137022 -54.721285 -16.912316 -81.971691 -50.091534 -32.722881 50.97316 27.511086 -12.614448 -2.325555 -3.867927 1.259147 170.309963 -10.093839 -108.785166 151.476684 17.84174 -137.538824 166.735514 -26.059232 -145.498103 132.481743 54.102976 -155.533585 -20.201146 43.721568 13.204958 -13.952237 48.150477 -11.343504 -4.164496 11.301469 -0.723962 -0.0 -0.0 0.0 -0.0 0.0 -0.0 7.04896 4.096437 76.543795 -133.283535 -70.127863 126.426348 -0.0 -0.0 0.0 -0.0 0.0 -0.0 -7.04896 4.096437 -76.543795 133.283535 -70.127863 -126.426348
46.5171 47.949 10.2084 0.0 0.0 0.0 -0.0 -4.771896 -180.0 0.0 -4.771896 -180.0 10.034043 15.923643 138.388627 -2.970543 18.523473 -139.311015 -0.0 -0.0 0.0 -0.0 -0.0 0.0 -142.973735 39.431617 147.390037 0.390751 62.824933 24.488577 -168.937961 1.653014 175.862636 4.718011 -14.507825 1.101683 -19.688051 17.543742 5.975988 54.912505 -57.147851 -1.877141 -138.493513 4.896353 114.8648 10.407662 17.721987 -10.916358 -167.375306 -28.008469 145.269175 -2.594169 21.001564 5.96758 0.000171 0.022601 0.007101 -165.740179 -1.028987 171.908227 8.143703 25.599709 7.179334 -11.700129 -23.145535 -11.137568 159.220516 -48.028485 -170.415257 82.89785 64.955938 -94.644688 5.953866 49.380806 -6.102793 -2.066486 -6.526197 -0.341681 -114.538671 -50.245352 -55.721798 32.87646 -8.083443 12.887354 127.853541 18.70338 -107.507054 13.844633 47.771384 -4.146211 0.571049 1.648356 -0.322148 44.40638 58.304872 -35.260408 0.000142 -0.018512 0.005816 165.71816 -0.761107 -171.867092 157.329919 57.246404 150.511839 126.022257 -27.677676 123.667878 -0.0 0.0 -0.0 -0.0 0.0 -0.0 -2.721753 1.041334 -25.607042 76.415663 6.9405 -6.063852 -0.0 0.0 -0.0 -0.0 0.0 -0.0 -6.40264 2.864577 -64.432653 150.389369 -7.194413 -78.663164
